<?xml version="1.0" encoding="UTF-8" standalone="no"?>
<svg
   xmlns:dc="http://purl.org/dc/elements/1.1/"
   xmlns:cc="http://creativecommons.org/ns#"
   xmlns:rdf="http://www.w3.org/1999/02/22-rdf-syntax-ns#"
   xmlns:svg="http://www.w3.org/2000/svg"
   xmlns="http://www.w3.org/2000/svg"
   xmlns:sodipodi="http://sodipodi.sourceforge.net/DTD/sodipodi-0.dtd"
   xmlns:inkscape="http://www.inkscape.org/namespaces/inkscape"
   width="1000"
   height="1000"
   version="1.1"
   id="svg76"
   sodipodi:docname="oatrack.svg"
   inkscape:version="1.0.2 (e86c870879, 2021-01-15)"
   inkscape:export-filename="/home/micahaltman/git-repos/indicators-web/image-src/oatrack_sq_512.png"
   inkscape:export-xdpi="49.151997"
   inkscape:export-ydpi="49.151997">
  <defs
     id="defs80" />
  <sodipodi:namedview
     pagecolor="#ffffff"
     bordercolor="#666666"
     borderopacity="1"
     objecttolerance="10"
     gridtolerance="10"
     guidetolerance="10"
     inkscape:pageopacity="0"
     inkscape:pageshadow="2"
     inkscape:window-width="1410"
     inkscape:window-height="908"
     id="namedview78"
     showgrid="false"
     inkscape:zoom="0.61675691"
     inkscape:cx="378.89004"
     inkscape:cy="548.21924"
     inkscape:window-x="0"
     inkscape:window-y="0"
     inkscape:window-maximized="1"
     inkscape:current-layer="svg76"
     inkscape:document-rotation="0" />
  <metadata
     id="metadata64">
    <rdf:RDF>
      <cc:Work
         rdf:about="">
        <dc:format>image/svg+xml</dc:format>
        <dc:type
           rdf:resource="http://purl.org/dc/dcmitype/StillImage" />
        <dc:creator>art designer at PLoS, modified by Wikipedia users Nina, Beao, JakobVoss, and AnonMoos</dc:creator>
        <dc:description>Open Access logo, converted into svg, designed by PLoS. This version with transparent background.</dc:description>
        <dc:source>http://commons.wikimedia.org/wiki/File:Open_Access_logo_PLoS_white.svg</dc:source>
        <dc:license
           rdf:resource="http://creativecommons.org/publicdomain/zero/1.0/" />
        <cc:license
           rdf:resource="http://creativecommons.org/publicdomain/zero/1.0/" />
        <cc:attributionName>art designer at PLoS, modified by Wikipedia users Nina, Beao, JakobVoss, and AnonMoos</cc:attributionName>
        <cc:attributionURL>http://www.plos.org/</cc:attributionURL>
        <dc:title />
      </cc:Work>
      <cc:License
         rdf:about="http://creativecommons.org/publicdomain/zero/1.0/">
        <cc:permits
           rdf:resource="http://creativecommons.org/ns#Reproduction" />
        <cc:permits
           rdf:resource="http://creativecommons.org/ns#Distribution" />
        <cc:permits
           rdf:resource="http://creativecommons.org/ns#DerivativeWorks" />
      </cc:License>
    </rdf:RDF>
  </metadata>
  <rect
     width="640"
     height="1000"
     fill="#ffffff"
     id="rect66"
     x="182.01939"
     y="9.1139536" />
  <g
     stroke="#f68212"
     stroke-width="104.764"
     fill="none"
     id="g72"
     transform="translate(182.01939,9.1139534)">
    <path
       d="m 111.387,308.135 v -35.727 a 209.21,209.214 0 0 1 418.42,0 v 258.426"
       id="path68" />
    <circle
       cx="320.004"
       cy="680.729"
       r="256.08301"
       id="circle70" />
  </g>
  <circle
     fill="#f68212"
     cx="503.02939"
     cy="690.77295"
     r="86.428703"
     id="circle74" />
  <g
     inkscape:groupmode="layer"
     id="layer1"
     inkscape:label="layer2" />
  <path
     d="m 429.95621,614.68703 c -31.73672,38.65086 -30.17589,98.62161 3.38178,135.62192 18.72988,20.76968 43.8331,31.08575 68.80626,31.08575 24.45288,0 48.7757,-9.90343 67.37549,-29.57274 8.45446,-8.9406 15.08795,-19.25665 19.64034,-30.12292 v 0 L 712.07485,469.71188 c 3.25171,-7.15248 -3.77199,-14.58005 -10.53556,-11.14136 L 463.25376,588.55298 v 0 c -12.35651,5.777 -23.67248,14.58005 -33.29755,26.13405 z m 43.44289,35.48727 c 7.93419,-8.39041 18.33967,-12.65438 28.74515,-12.65438 10.40548,0 20.81096,4.26397 28.8752,12.65438 15.86837,16.78081 15.86837,44.15278 0,60.93358 -7.93417,8.3904 -18.33965,12.65438 -28.8752,12.65438 -10.40548,0 -20.81096,-4.26398 -28.74515,-12.65438 -15.99842,-16.91836 -15.99842,-44.15277 0,-60.93358 z m 283.93959,62.30906 c 0,-47.59148 -11.83624,-94.35764 -34.33809,-135.20927 -8.71459,-15.95553 -3.64191,-36.31257 11.44603,-45.52826 15.08795,-9.21569 34.33809,-3.85132 43.05269,12.10419 27.96473,51.03015 42.79254,109.35033 42.79254,168.63334 0,18.43138 -14.0474,33.28651 -31.47658,33.28651 -17.29911,0 -31.47659,-14.85513 -31.47659,-33.28651 z m -572.56164,0 c 0,-185.2766 142.5551,-336.02874 317.7574,-336.02874 40.71145,0 80.38235,7.97776 117.84208,23.93328 16.12851,6.87739 23.93261,26.13404 17.55927,43.18993 -6.50344,17.05591 -24.71304,25.30876 -40.84153,18.56893 -30.04583,-12.65438 -61.91262,-19.11911 -94.55982,-19.11911 -140.474,0 -254.80424,120.90431 -254.80424,269.45571 0,18.43138 -14.04741,33.28651 -31.47658,33.28651 -17.42919,0 -31.47658,-14.85513 -31.47658,-33.28651 z"
     id="path180"
     style="stroke-width:1.33756" />
</svg>
